<svg id="vector" xmlns="http://www.w3.org/2000/svg" width="24" height="24" viewBox="0 0 24 24"><path fill="#4285f4" d="M21.7428,12.2242a11.534,11.534 0,0 0,-0.158 -1.883h-9.375v3.742h5.368a4.622,4.622 0,0 1,-1.991 2.97L15.5868,19.5422h3.2A9.734,9.734 0,0 0,21.7428 12.2242Z" id="path_0"/><path fill="#34a853" d="M12.2098,21.9562A9.483,9.483 0,0 0,18.7888 19.5412l-3.2,-2.489a6.006,6.006 0,0 1,-3.377 0.962,5.946 5.946,0 0,1 -5.583,-4.115h-3.3v2.564A9.941,9.941 0,0 0,12.2098 21.9562Z" id="path_1"/><path fill="#fbbc05" d="M6.6268,13.9002a5.777,5.777 0,0 1,-0.315 -1.9,6 6,0 0,1 0.315,-1.9L6.6268,7.5372h-3.3a9.84,9.84 0,0 0,-1.07 4.463,9.84 9.84,0 0,0 1.07,4.463Z" id="path_2"/><path fill="#ea4335" d="M12.2098,5.9862a5.4,5.4 0,0 1,3.816 1.493l2.837,-2.837a9.518,9.518 0,0 0,-6.654 -2.6,9.941 9.941,0 0,0 -8.885,5.492l3.3,2.564A5.946,5.946 0,0 1,12.2098 5.9862Z" id="path_3"/></svg>